<svg width="48" height="48" viewBox="0 0 48 48" fill="none" xmlns="http://www.w3.org/2000/svg">
<path d="M23.2017 41V36.9925C21.4297 36.8128 19.9419 36.2417 18.7382 35.279C17.5342 34.316 16.6528 33.0615 16.0938 31.5155L17.5092 30.8655C18.1272 32.3628 18.9631 33.5032 20.0167 34.2865C21.0707 35.0698 22.4247 35.4615 24.0787 35.4615C25.7041 35.4615 27.1681 35.0423 28.4708 34.204C29.7734 33.3653 30.4247 32.0793 30.4247 30.346C30.4247 28.777 29.9216 27.5347 28.9152 26.619C27.9086 25.7037 26.1642 24.8422 23.6822 24.0345C21.3079 23.2678 19.5676 22.3538 18.4612 21.2925C17.3549 20.2308 16.8017 18.827 16.8017 17.081C16.8017 15.3757 17.4639 13.9577 18.7882 12.827C20.1126 11.6963 21.5837 11.0988 23.2017 11.0345V7H24.7402V11.0345C26.0606 11.1242 27.2176 11.4492 28.2113 12.0095C29.2049 12.5698 30.0363 13.4063 30.7053 14.519L29.3667 15.2575C28.8491 14.3962 28.1601 13.711 27.2997 13.202C26.4394 12.693 25.3631 12.4385 24.0707 12.4385C22.5117 12.4385 21.1669 12.8527 20.0362 13.681C18.9056 14.509 18.3402 15.6383 18.3402 17.069C18.3402 18.3613 18.7761 19.4313 19.6477 20.279C20.5194 21.1263 22.3181 21.9795 25.0437 22.8385C27.4644 23.6412 29.2227 24.611 30.3187 25.748C31.4151 26.8853 31.9632 28.3898 31.9632 30.2615C31.9632 32.1565 31.2952 33.7072 29.9592 34.9135C28.6232 36.1198 26.8836 36.8038 24.7402 36.9655V41H23.2017Z" fill="#6983AA"/>
</svg>
