<svg preserveAspectRatio="none" width="100%" height="100%" overflow="visible" style="display: block;" viewBox="0 0 19.6 20" fill="none" xmlns="http://www.w3.org/2000/svg">
<g id="Group">
<path id="Shape" fill-rule="evenodd" clip-rule="evenodd" d="M19.6 10.2272C19.6 9.51808 19.5364 8.83626 19.4182 8.18171H10V12.0499H15.3819C15.15 13.2999 14.4455 14.359 13.3864 15.0681V17.5772H16.6182C18.5091 15.8363 19.6 13.2726 19.6 10.2272Z" fill="var(--fill-0, #4285F4)"/>
<path id="Shape_2" fill-rule="evenodd" clip-rule="evenodd" d="M10 20C12.7 20 14.9637 19.1045 16.6182 17.5773L13.3864 15.0682C12.4909 15.6682 11.3455 16.0227 10 16.0227C7.39547 16.0227 5.19092 14.2636 4.40456 11.9H1.06364V14.4909C2.7091 17.7591 6.09093 20 10 20Z" fill="var(--fill-0, #0F9D58)"/>
<path id="Shape_3" fill-rule="evenodd" clip-rule="evenodd" d="M4.40456 11.9001C4.20455 11.3001 4.09092 10.6592 4.09092 10.0001C4.09092 9.34101 4.20455 8.7001 4.40456 8.10009V5.50918H1.06364C0.386364 6.85918 0 8.38646 0 10.0001C0 11.6137 0.386364 13.141 1.06364 14.491L4.40456 11.9001Z" fill="var(--fill-0, #F4B400)"/>
<path id="Shape_4" fill-rule="evenodd" clip-rule="evenodd" d="M10 3.97728C11.4682 3.97728 12.7864 4.48183 13.8228 5.47274L16.6909 2.60455C14.9591 0.990911 12.6955 0 10 0C6.09093 0 2.7091 2.24091 1.06364 5.5091L4.40456 8.10002C5.19092 5.73638 7.39547 3.97728 10 3.97728Z" fill="var(--fill-0, #DB4437)"/>
</g>
</svg>
