<svg width="295" height="295" viewBox="0 0 295 295" fill="none" xmlns="http://www.w3.org/2000/svg">
<path d="M147.5 0C228.962 0 295 66.038 295 147.5C295 155.711 294.328 163.765 293.038 171.61C288.83 171.208 284.564 171 280.25 171C209.875 171 152.291 225.762 147.785 294.998C147.69 294.998 147.595 295 147.5 295C66.038 295 0 228.962 0 147.5C0 66.038 66.038 0 147.5 0ZM280.25 174C284.387 174 288.479 174.196 292.517 174.574C291.645 179.271 290.552 183.889 289.247 188.418C286.374 188.209 283.472 188.1 280.545 188.1C219.4 188.1 169.118 234.607 163.141 294.178C159.072 294.607 154.955 294.87 150.795 294.961C155.314 227.401 211.545 174 280.25 174ZM280.545 192.1C283.068 192.1 285.573 192.182 288.056 192.344C286.656 196.733 285.059 201.034 283.271 205.234C282.365 205.211 281.456 205.2 280.545 205.2C229.224 205.2 186.65 242.644 178.647 291.702C174.887 292.51 171.074 293.175 167.214 293.69C173.398 236.567 221.778 192.1 280.545 192.1ZM281.045 210.203C279.067 214.408 276.898 218.504 274.546 222.48C236.368 224.909 204.77 251.545 194.931 287.207C191.327 288.43 187.661 289.516 183.938 290.462C192.389 244.791 232.427 210.2 280.545 210.2C280.712 210.2 280.878 210.202 281.045 210.203ZM270.545 228.865C267.52 233.43 264.247 237.816 260.747 242.006C240.947 247.421 224.47 260.882 215.048 278.655C210.813 280.841 206.459 282.828 201.997 284.603C211.959 254.832 238.433 232.628 270.545 228.865ZM249.848 253.709C243.39 259.934 236.366 265.575 228.86 270.548C234.618 263.61 241.754 257.857 249.848 253.709Z" fill="url(#paint0_linear_4_1059)"/>
<circle cx="82.2329" cy="86.7524" r="28.7524" fill="#F8FAFC"/>
<defs>
<linearGradient id="paint0_linear_4_1059" x1="147.5" y1="0" x2="147.5" y2="295" gradientUnits="userSpaceOnUse">
<stop stop-color="#82C9FF"/>
<stop offset="1" stop-color="#82C9FF" stop-opacity="0.3"/>
</linearGradient>
</defs>
</svg>
