<svg preserveAspectRatio="none" width="100%" height="100%" overflow="visible" style="display: block;" viewBox="0 0 15.202 14" fill="none" xmlns="http://www.w3.org/2000/svg">
<path id="Vector" d="M2.448 14V12.7435H9.943C11.043 12.7435 11.9851 12.3725 12.7693 11.6305C13.5534 10.8883 13.9455 9.97475 13.9455 8.88975C13.9455 7.80475 13.5534 6.89275 12.7693 6.15375C11.9851 5.41492 11.043 5.0455 9.943 5.0455H2.3975L5.302 7.95L4.41725 8.8345L0 4.41725L4.41725 0L5.302 0.88475L2.3975 3.78925H9.92625C11.3754 3.78925 12.617 4.28075 13.651 5.26375C14.685 6.24692 15.202 7.4545 15.202 8.8865C15.202 10.3185 14.685 11.5288 13.651 12.5173C12.617 13.5058 11.3754 14 9.92625 14H2.448Z" fill="var(--fill-0, #E2E8F0)"/>
</svg>
