<svg width="24" height="24" viewBox="0 0 24 24" fill="none" xmlns="http://www.w3.org/2000/svg">
<path d="M7.6155 20.0036C7.168 20.0036 6.78683 19.8463 6.472 19.5316C6.15733 19.2168 6 18.8356 6 18.3881V6.00363H5V5.00363H9V4.23438H15V5.00363H19V6.00363H18V18.3881C18 18.8485 17.8458 19.2328 17.5375 19.5411C17.2292 19.8495 16.8448 20.0036 16.3845 20.0036H7.6155ZM17 6.00363H7V18.3881C7 18.5676 7.05767 18.7151 7.173 18.8306C7.2885 18.946 7.436 19.0036 7.6155 19.0036H16.3845C16.5385 19.0036 16.6796 18.9395 16.8077 18.8114C16.9359 18.6832 17 18.5421 17 18.3881V6.00363ZM9.80775 17.0036H10.8078V8.00363H9.80775V17.0036ZM13.1923 17.0036H14.1923V8.00363H13.1923V17.0036Z" fill="currentColor"/>
</svg>
