<svg preserveAspectRatio="none" width="100%" height="100%" overflow="visible" style="display: block;" viewBox="0 0 310.168 310.168" fill="none" xmlns="http://www.w3.org/2000/svg">
<path id="Polygon 23" d="M137.242 11.1124C146.659 -7.79273 175.144 -1.09087 175.144 20.0299V115.024C175.144 126.069 184.098 135.024 195.144 135.024H290.138C311.259 135.024 317.96 163.508 299.055 172.926L247.641 198.536C243.749 200.475 240.595 203.629 238.657 207.521L193.046 299.085C185.685 313.862 164.603 313.862 157.242 299.085L111.631 207.521C109.693 203.629 106.539 200.475 102.647 198.536L11.0825 152.926C-3.6942 145.565 -3.69417 124.482 11.0826 117.122L102.647 71.5109C106.539 69.5723 109.693 66.4183 111.631 62.5264L137.242 11.1124Z" fill="var(--fill-0, #0E8CB8)"/>
</svg>
